<mxfile host="app.diagrams.net" agent="Mozilla/5.0 (Windows NT 10.0; Win64; x64) AppleWebKit/537.36 (KHTML, like Gecko) Chrome/135.0.0.0 Safari/537.36 Edg/135.0.0.0" version="26.2.14">
  <diagram name="第 1 页" id="DRp3rxSnaM7We9xXxPyI">
    <mxGraphModel dx="1395" dy="801" grid="1" gridSize="10" guides="1" tooltips="1" connect="1" arrows="1" fold="1" page="1" pageScale="1" pageWidth="827" pageHeight="1169" math="0" shadow="0">
      <root>
        <mxCell id="0" />
        <mxCell id="1" parent="0" />
        <mxCell id="BVx51RrmqkHznG-ncwPN-1" value="Pool" style="swimlane;fontStyle=1;align=center;verticalAlign=top;childLayout=stackLayout;horizontal=1;startSize=26;horizontalStack=0;resizeParent=1;resizeParentMax=0;resizeLast=0;collapsible=1;marginBottom=0;whiteSpace=wrap;html=1;" vertex="1" parent="1">
          <mxGeometry x="400" y="80" width="372.09" height="164" as="geometry" />
        </mxCell>
        <mxCell id="BVx51RrmqkHznG-ncwPN-2" value="- pool : Dictionary&amp;lt;string, Queue&amp;lt;GameObecjt&amp;gt;&amp;gt;" style="text;strokeColor=none;fillColor=none;align=left;verticalAlign=top;spacingLeft=4;spacingRight=4;overflow=hidden;rotatable=0;points=[[0,0.5],[1,0.5]];portConstraint=eastwest;whiteSpace=wrap;html=1;" vertex="1" parent="BVx51RrmqkHznG-ncwPN-1">
          <mxGeometry y="26" width="372.09" height="26" as="geometry" />
        </mxCell>
        <mxCell id="BVx51RrmqkHznG-ncwPN-3" value="" style="line;strokeWidth=1;fillColor=none;align=left;verticalAlign=middle;spacingTop=-1;spacingLeft=3;spacingRight=3;rotatable=0;labelPosition=right;points=[];portConstraint=eastwest;strokeColor=inherit;" vertex="1" parent="BVx51RrmqkHznG-ncwPN-1">
          <mxGeometry y="52" width="372.09" height="8" as="geometry" />
        </mxCell>
        <mxCell id="BVx51RrmqkHznG-ncwPN-4" value="- Awake() : void" style="text;strokeColor=none;fillColor=none;align=left;verticalAlign=top;spacingLeft=4;spacingRight=4;overflow=hidden;rotatable=0;points=[[0,0.5],[1,0.5]];portConstraint=eastwest;whiteSpace=wrap;html=1;" vertex="1" parent="BVx51RrmqkHznG-ncwPN-1">
          <mxGeometry y="60" width="372.09" height="26" as="geometry" />
        </mxCell>
        <mxCell id="BVx51RrmqkHznG-ncwPN-5" value="- InitializePool : void" style="text;strokeColor=none;fillColor=none;align=left;verticalAlign=top;spacingLeft=4;spacingRight=4;overflow=hidden;rotatable=0;points=[[0,0.5],[1,0.5]];portConstraint=eastwest;whiteSpace=wrap;html=1;" vertex="1" parent="BVx51RrmqkHznG-ncwPN-1">
          <mxGeometry y="86" width="372.09" height="26" as="geometry" />
        </mxCell>
        <mxCell id="BVx51RrmqkHznG-ncwPN-7" value="- GetObject(string name) : void" style="text;strokeColor=none;fillColor=none;align=left;verticalAlign=top;spacingLeft=4;spacingRight=4;overflow=hidden;rotatable=0;points=[[0,0.5],[1,0.5]];portConstraint=eastwest;whiteSpace=wrap;html=1;" vertex="1" parent="BVx51RrmqkHznG-ncwPN-1">
          <mxGeometry y="112" width="372.09" height="26" as="geometry" />
        </mxCell>
        <mxCell id="BVx51RrmqkHznG-ncwPN-8" value="- ReturnObject(GameObject go) : void" style="text;strokeColor=none;fillColor=none;align=left;verticalAlign=top;spacingLeft=4;spacingRight=4;overflow=hidden;rotatable=0;points=[[0,0.5],[1,0.5]];portConstraint=eastwest;whiteSpace=wrap;html=1;" vertex="1" parent="BVx51RrmqkHznG-ncwPN-1">
          <mxGeometry y="138" width="372.09" height="26" as="geometry" />
        </mxCell>
      </root>
    </mxGraphModel>
  </diagram>
</mxfile>
